<?xml version="1.0" standalone="no"?>
<!DOCTYPE svg PUBLIC "-//W3C//DTD SVG 1.1//EN" "http://www.w3.org/Graphics/SVG/1.1/DTD/svg11.dtd" >
<svg xmlns="http://www.w3.org/2000/svg">
<metadata></metadata>
<defs>
<font id="lombokregular" horiz-adv-x="1019" >
<font-face units-per-em="2048" ascent="1536" descent="-512" />
<missing-glyph horiz-adv-x="512" />
<glyph horiz-adv-x="0" />
<glyph horiz-adv-x="682" />
<glyph horiz-adv-x="0" />
<glyph horiz-adv-x="0" />
<glyph unicode="&#xd;" horiz-adv-x="512" />
<glyph unicode=" "  horiz-adv-x="512" />
<glyph unicode="&#x09;" horiz-adv-x="512" />
<glyph unicode="&#xa0;" horiz-adv-x="512" />
<glyph unicode="!" horiz-adv-x="540" d="M205 37q0 28 18.5 46.5t46.5 18.5t47 -18.5t19 -46.5t-19 -47t-47 -19t-46.5 19t-18.5 47zM236 453v981h73v-981h-73z" />
<glyph unicode="&#x22;" horiz-adv-x="743" d="M205 1012v422h74v-422h-74zM465 1012v422h74v-422h-74z" />
<glyph unicode="$" horiz-adv-x="1251" d="M102 403h74q0 -72 25.5 -132t68.5 -101t100 -70t119 -42t127 -13q86 0 162 18.5t140.5 56.5t102.5 105t38 156q0 235 -277 342q-39 15 -97.5 35t-100.5 34t-94.5 35t-89.5 40.5t-75 48t-61.5 59.5t-38 72.5t-14.5 89.5q0 96 54 169.5t136 110.5t179 43v164h73v-164 q70 -5 132.5 -27.5t113 -61.5t80 -99.5t29.5 -134.5h-74q0 82 -48 142.5t-120.5 88t-157.5 27.5q-62 0 -119 -16.5t-103 -47.5t-73.5 -81.5t-27.5 -112.5q0 -43 14.5 -78.5t45.5 -64.5t64 -50.5t86.5 -43.5t94.5 -37t107 -37.5t106 -37.5q182 -69 256 -170.5t74 -234.5 q0 -98 -37.5 -175.5t-103.5 -127t-151.5 -76.5t-187.5 -31v-163h-73v163q-68 4 -132.5 20t-128 50t-111 81.5t-77 119.5t-29.5 159z" />
<glyph unicode="'" horiz-adv-x="483" d="M205 1012v422h74v-422h-74z" />
<glyph unicode="(" horiz-adv-x="677" d="M145.5 558q-0.5 180 36 342.5t114.5 304.5t189 229l47 -56q-148 -115 -230.5 -339.5t-82.5 -479.5q0 -258 82.5 -481t233.5 -338l-48 -55q-111 86 -189.5 227.5t-115 303.5t-37 342z" />
<glyph unicode=")" horiz-adv-x="677" d="M143 -260q151 115 233.5 338t82.5 481q0 255 -83 479.5t-231 339.5l48 56q111 -87 189 -229t114.5 -304.5t36 -342.5t-37.5 -342t-115.5 -303.5t-189.5 -227.5z" />
<glyph unicode="+" d="M205 678v74h268v268h74v-268h268v-74h-268v-268h-74v268h-268z" />
<glyph unicode="," horiz-adv-x="483" d="M205 102h74v-415h-74v415z" />
<glyph unicode="-" d="M205 678v74h610v-74h-610z" />
<glyph unicode="." horiz-adv-x="253" d="M61 37q0 28 19 46.5t47 18.5t47 -18.5t19 -46.5t-19 -47t-47 -19t-47 19t-19 47z" />
<glyph unicode="/" d="M82 -283l788 1717l68 -31l-786 -1716z" />
<glyph unicode=":" horiz-adv-x="540" d="M205 37q0 28 18.5 46.5t46.5 18.5t47 -18.5t19 -46.5t-19 -47t-47 -19t-46.5 19t-18.5 47zM205 946q0 28 18.5 47t46.5 19t47 -19t19 -47t-19 -46.5t-47 -18.5t-46.5 18.5t-18.5 46.5z" />
<glyph unicode=";" horiz-adv-x="540" d="M205 946q0 28 18.5 47t46.5 19t47 -19t19 -47t-19 -46.5t-47 -18.5t-46.5 18.5t-18.5 46.5zM233 102h74v-415h-74v415z" />
<glyph unicode="&#x3c;" horiz-adv-x="821" d="M123 717l500 604l55 -47l-457 -557l457 -557l-55 -47z" />
<glyph unicode="=" horiz-adv-x="1306" d="M205 453v73h897v-73h-897zM205 907v74h897v-74h-897z" />
<glyph unicode="&#x3e;" horiz-adv-x="821" d="M143 160l457 557l-457 557l56 47l499 -604l-499 -604z" />
<glyph unicode="?" horiz-adv-x="960" d="M82 1137q0 105 57.5 180.5t144.5 110t189 34.5q77 0 148.5 -21t129.5 -60.5t93 -102.5t35 -141q0 -57 -13.5 -102.5t-43 -81t-54 -57.5t-66.5 -54q-13 -10 -20 -15q-42 -32 -63 -49.5t-43.5 -43.5t-31.5 -46.5t-17 -56.5t-9.5 -75.5t-1.5 -102.5h-74q0 70 2.5 116.5 t13.5 87.5t21.5 65.5t39 56t54 53t76.5 61.5q80 65 101 88q55 62 55 156q0 82 -48 142.5t-120 88t-156 27.5q-85 0 -157 -27.5t-120 -88t-48 -142.5h-74zM414 37q0 28 18.5 46.5t46.5 18.5t47 -18.5t19 -46.5t-19 -47t-47 -19t-46.5 19t-18.5 47z" />
<glyph unicode="A" horiz-adv-x="1220" d="M41 27l111 272h917l111 -272l-68 -27l-92 225h-821l-90 -225zM305 680l295 754h21l294 -754h-610zM414 754h393l-197 516z" />
<glyph unicode="B" horiz-adv-x="1230" d="M205 0v526h639q109 0 186.5 -77.5t77.5 -186.5q0 -106 -78 -184t-186 -78h-639zM205 907v527h448q109 0 187 -78t78 -187q0 -106 -78.5 -184t-186.5 -78h-448zM279 74h565q78 0 134 55.5t56 132.5q0 78 -56 134.5t-134 56.5h-565v-379zM279 981h374q78 0 134.5 55.5 t56.5 132.5q0 78 -56.5 134.5t-134.5 56.5h-374v-379z" />
<glyph unicode="C" horiz-adv-x="1452" d="M143 717q0 153 56.5 290.5t155.5 237.5t239.5 158.5t300.5 58.5q261 0 455 -155l-47 -54q-183 140 -408 140q-193 0 -349.5 -91.5t-242.5 -246t-86 -338.5t86 -338.5t242.5 -246t349.5 -91.5q226 0 408 139l47 -53q-195 -156 -455 -156q-214 0 -387 100t-269 270.5 t-96 375.5z" />
<glyph unicode="D" horiz-adv-x="1417" d="M205 0v1434h368q136 0 251.5 -40t196.5 -109t138.5 -161t85 -195t27.5 -212t-27.5 -212t-85 -195t-138.5 -161t-196.5 -109t-251.5 -40h-368zM279 74h294q149 0 270 55.5t195 145.5t114.5 205.5t40.5 236.5t-40.5 236.5t-114.5 205.5t-195 145.5t-270 55.5h-294v-1286z " />
<glyph unicode="E" horiz-adv-x="1163" d="M205 0v526h610v-73h-536v-379h823v-74h-897zM205 907v527h897v-74h-823v-379h536v-74h-610z" />
<glyph unicode="F" horiz-adv-x="1163" d="M205 0v526h610v-73h-536v-453h-74zM205 907v527h897v-74h-823v-379h536v-74h-610z" />
<glyph unicode="G" horiz-adv-x="1533" d="M143 717q0 153 56.5 290.5t155.5 237.5t239.5 158.5t300.5 58.5q261 0 455 -155l-47 -54q-183 140 -408 140q-193 0 -349.5 -91.5t-242.5 -246t-86 -338.5t86 -338.5t242.5 -246t349.5 -91.5q207 0 381 119v293h-461v73h535v-399q-195 -156 -455 -156q-214 0 -387 100 t-269 270.5t-96 375.5zM815 907v74h535v-74h-535z" />
<glyph unicode="H" horiz-adv-x="1327" d="M205 0v526h917v-526h-73v453h-770v-453h-74zM205 907v527h74v-453h770v453h73v-527h-917z" />
<glyph unicode="I" horiz-adv-x="483" d="M205 0v1434h74v-1434h-74z" />
<glyph unicode="J" horiz-adv-x="1132" d="M123 154l55 51q54 -74 136 -117t175 -43q166 0 275.5 101.5t109.5 283.5v1004h74v-1004q0 -107 -36 -195t-99 -145t-146 -88t-178 -31q-110 0 -206 49t-160 134z" />
<glyph unicode="K" horiz-adv-x="1239" d="M205 0v526l459 232l432 -721l-62 -37l-393 655l-362 -176v-479h-74zM205 952v482h74v-357l692 357l33 -62z" />
<glyph unicode="L" horiz-adv-x="1163" d="M205 0v1434h74v-1360h823v-74h-897z" />
<glyph unicode="M" horiz-adv-x="1753" d="M205 0v954l672 -553l671 553v-954h-73v797l-598 -492l-598 492v-797h-74zM272 1378l47 56l558 -457l557 457l47 -56l-604 -499z" />
<glyph unicode="N" horiz-adv-x="1568" d="M205 0v954l1091 -897l-47 -57l-970 797v-797h-74zM272 1376l47 58l971 -797v797h74v-955z" />
<glyph unicode="O" horiz-adv-x="1789" d="M143 717q0 153 56.5 290.5t155.5 237.5t239.5 158.5t300.5 58.5t300.5 -58.5t239.5 -158.5t155.5 -237.5t56.5 -290.5q0 -205 -96 -375.5t-269 -270.5t-387 -100t-387 100t-269 270.5t-96 375.5zM217 717q0 -184 86 -338.5t242.5 -246t349.5 -91.5t349.5 91.5t242.5 246 t86 338.5t-86 338.5t-242.5 246t-349.5 91.5t-349.5 -91.5t-242.5 -246t-86 -338.5z" />
<glyph unicode="P" horiz-adv-x="1189" d="M205 0v526h74v-526h-74zM205 907v527h639q109 0 186.5 -78t77.5 -187q0 -106 -78 -184t-186 -78h-639zM279 981h565q78 0 134 55.5t56 132.5q0 78 -56 134.5t-134 56.5h-565v-379z" />
<glyph unicode="Q" horiz-adv-x="1789" d="M143 717q0 153 56.5 290.5t155.5 237.5t239.5 158.5t300.5 58.5t300.5 -58.5t239.5 -158.5t155.5 -237.5t56.5 -290.5q0 -187 -84 -352l139 -115l-47 -57l-535 438l45 59l338 -278q70 143 70 305q0 184 -86 338.5t-242.5 246t-349.5 91.5t-349.5 -91.5t-242.5 -246 t-86 -338.5t86 -338.5t242.5 -246t349.5 -91.5q105 0 207 31l-264 217l-2 2l47 57l489 -401l-47 -58l-158 129q-127 -47 -272 -47q-214 0 -387 100t-269 270.5t-96 375.5z" />
<glyph unicode="R" horiz-adv-x="1265" d="M205 0v526h713l266 -489l-64 -37l-248 453h-593v-453h-74zM205 907v527h639q109 0 186.5 -78t77.5 -187q0 -106 -78 -184t-186 -78h-639zM279 981h565q78 0 134 55.5t56 132.5q0 78 -56 134.5t-134 56.5h-565v-379z" />
<glyph unicode="S" horiz-adv-x="1251" d="M102 403h74q0 -72 25.5 -132t68.5 -101t100 -70t119 -42t127 -13q86 0 162 18.5t140.5 56.5t102.5 105t38 156q0 235 -277 342q-39 15 -97.5 35t-100.5 34t-94.5 35t-89.5 40.5t-75 48t-61.5 59.5t-38 72.5t-14.5 89.5q0 78 35 141t92.5 102.5t129 60.5t148.5 21 q102 0 189 -34.5t145 -110t58 -180.5h-74q0 82 -48 142.5t-120.5 88t-157.5 27.5q-62 0 -119 -16.5t-103 -47.5t-73.5 -81.5t-27.5 -112.5q0 -43 14.5 -78.5t45.5 -64.5t64 -50.5t86.5 -43.5t94.5 -37t107 -37.5t106 -37.5q182 -69 256 -170.5t74 -234.5q0 -102 -40.5 -182 t-111.5 -129.5t-163.5 -75t-201.5 -25.5q-69 0 -138 14t-137.5 47t-121 81.5t-85 123.5t-32.5 166z" />
<glyph unicode="T" horiz-adv-x="1081" d="M82 1360v74h917v-74h-421v-1360h-74v1360h-422z" />
<glyph unicode="U" horiz-adv-x="1327" d="M184 430v1004h74v-1004q0 -160 117 -272.5t289 -112.5t288.5 112.5t116.5 272.5v1004h74v-1004q0 -191 -138.5 -325t-340.5 -134q-133 0 -244 62t-173.5 167t-62.5 230z" />
<glyph unicode="V" horiz-adv-x="1200" d="M82 1407l72 27l446 -1239l447 1239l71 -27l-508 -1407h-20z" />
<glyph unicode="W" horiz-adv-x="1753" d="M205 479v955h74v-797l598 491l598 -491v797h73v-955l-671 553zM272 55l605 500l604 -500l-47 -55l-557 457l-558 -457z" />
<glyph unicode="X" horiz-adv-x="1200" d="M82 55l518 471l518 -473l-49 -53l-469 424l-469 -424zM82 1378l49 56l469 -424l469 424l49 -54l-518 -473z" />
<glyph unicode="Y" horiz-adv-x="1200" d="M82 1378l49 56l469 -424l469 424l49 -54l-518 -473zM563 0v526h74v-526h-74z" />
<glyph unicode="Z" horiz-adv-x="1449" d="M123 31l610 1329h-497v74h614l-657 -1434zM600 0l660 1434l67 -31l-610 -1329h610v-74h-727z" />
<glyph unicode="`" horiz-adv-x="1024" d="M205 1671l12 74l602 -103l-12 -73z" />
<glyph unicode="|" horiz-adv-x="483" d="M205 -313v1747h74v-1747h-74z" />
<glyph unicode="&#xab;" horiz-adv-x="1396" d="M123 717l500 604l55 -47l-457 -557l457 -557l-55 -47zM698 717l500 604l55 -47l-456 -557l456 -557l-55 -47z" />
<glyph unicode="&#xad;" d="M205 678v74h610v-74h-610z" />
<glyph unicode="&#xb4;" horiz-adv-x="1024" d="M205 1642l602 103l12 -74l-602 -102z" />
<glyph unicode="&#xbb;" horiz-adv-x="1396" d="M143 160l457 557l-457 557l56 47l499 -604l-499 -604zM719 160l457 557l-457 557l55 47l500 -604l-500 -604z" />
<glyph unicode="&#xc0;" horiz-adv-x="1302" d="M82 27l111 272h917l111 -272l-68 -27l-92 225h-821l-90 -225zM344 1671l12 74l602 -103l-12 -73zM346 680l295 754h21l294 -754h-610zM455 754h393l-197 516z" />
<glyph unicode="&#xc2;" horiz-adv-x="1302" d="M82 27l111 272h917l111 -272l-68 -27l-92 225h-821l-90 -225zM344 1636l307 111l307 -111l-24 -67l-283 100l-282 -100zM346 680l295 754h21l294 -754h-610zM455 754h393l-197 516z" />
<glyph unicode="&#xc7;" horiz-adv-x="1452" d="M143 717q0 153 56.5 290.5t155.5 237.5t239.5 158.5t300.5 58.5q261 0 455 -155l-47 -54q-183 140 -408 140q-193 0 -349.5 -91.5t-242.5 -246t-86 -338.5t86 -338.5t242.5 -246t349.5 -91.5q226 0 408 139l47 -53q-195 -156 -455 -156q-214 0 -387 100t-269 270.5 t-96 375.5zM635 -274l205 313l65 -41l-205 -313z" />
<glyph unicode="&#xc8;" horiz-adv-x="1163" d="M205 0v526h610v-73h-536v-379h823v-74h-897zM205 907v527h897v-74h-823v-379h536v-74h-610zM346 1671l12 74l603 -103l-13 -73z" />
<glyph unicode="&#xc9;" horiz-adv-x="1163" d="M205 0v526h610v-73h-536v-379h823v-74h-897zM205 907v527h897v-74h-823v-379h536v-74h-610zM346 1642l602 103l13 -74l-603 -102z" />
<glyph unicode="&#xca;" horiz-adv-x="1163" d="M205 0v526h610v-73h-536v-379h823v-74h-897zM205 907v527h897v-74h-823v-379h536v-74h-610zM346 1636l307 111l308 -111l-25 -67l-283 100l-282 -100z" />
<glyph unicode="&#xce;" horiz-adv-x="483" d="M-66 1636l308 111l307 -111l-25 -67l-282 100l-283 -100zM205 0v1434h74v-1434h-74z" />
<glyph unicode="&#xd4;" horiz-adv-x="1789" d="M143 717q0 153 56.5 290.5t155.5 237.5t239.5 158.5t300.5 58.5t300.5 -58.5t239.5 -158.5t155.5 -237.5t56.5 -290.5q0 -205 -96 -375.5t-269 -270.5t-387 -100t-387 100t-269 270.5t-96 375.5zM217 717q0 -184 86 -338.5t242.5 -246t349.5 -91.5t349.5 91.5t242.5 246 t86 338.5t-86 338.5t-242.5 246t-349.5 91.5t-349.5 -91.5t-242.5 -246t-86 -338.5zM588 1634l307 111l307 -111l-24 -67l-283 100l-283 -100z" />
<glyph unicode="&#xd9;" horiz-adv-x="1327" d="M184 430v1004h74v-1004q0 -160 117 -272.5t289 -112.5t288.5 112.5t116.5 272.5v1004h74v-1004q0 -191 -138.5 -325t-340.5 -134q-133 0 -244 62t-173.5 167t-62.5 230zM356 1669l13 74l602 -103l-13 -73z" />
<glyph unicode="&#x2c6;" horiz-adv-x="1024" d="M205 1634l307 111l307 -111l-24 -67l-283 100l-283 -100z" />
<glyph unicode="&#x2000;" horiz-adv-x="873" />
<glyph unicode="&#x2001;" horiz-adv-x="1747" />
<glyph unicode="&#x2002;" horiz-adv-x="873" />
<glyph unicode="&#x2003;" horiz-adv-x="1747" />
<glyph unicode="&#x2004;" horiz-adv-x="582" />
<glyph unicode="&#x2005;" horiz-adv-x="436" />
<glyph unicode="&#x2006;" horiz-adv-x="291" />
<glyph unicode="&#x2007;" horiz-adv-x="291" />
<glyph unicode="&#x2008;" horiz-adv-x="218" />
<glyph unicode="&#x2009;" horiz-adv-x="349" />
<glyph unicode="&#x200a;" horiz-adv-x="97" />
<glyph unicode="&#x2010;" d="M205 678v74h610v-74h-610z" />
<glyph unicode="&#x2011;" d="M205 678v74h610v-74h-610z" />
<glyph unicode="&#x2012;" d="M205 678v74h610v-74h-610z" />
<glyph unicode="&#x2013;" d="M205 678v74h610v-74h-610z" />
<glyph unicode="&#x2014;" horiz-adv-x="1630" d="M205 678v74h1220v-74h-1220z" />
<glyph unicode="&#x2022;" horiz-adv-x="630" d="M205 717q0 47 31.5 78.5t78.5 31.5t79 -31.5t32 -78.5t-32 -79t-79 -32t-78.5 32t-31.5 79z" />
<glyph unicode="&#x202f;" horiz-adv-x="349" />
<glyph unicode="&#x205f;" horiz-adv-x="436" />
<glyph unicode="&#x25fc;" horiz-adv-x="1024" d="M0 0z" />
</font>
</defs>
</svg>
