<svg xmlns="http://www.w3.org/2000/svg" viewBox="0 0 1440 880"><path d="M0 1l-1 457 1 423h526s-.457-13.935 0-29c.537-17.718 2-39 2-39l-4-11-1-17s-2.955-12.135-3-16c-.031-.566-.341-8.983 0-11 .341-2.017 10-14 10-14v-16s1.513-2.256 3-3c1.513-.756 5-1 5-1v-3l3-2s.03-2.065 2-3c2.749-1.304 8-1 8-1s4.827-.755 5-2c.119-.86 0-9 0-9s-.298-2.793 0-4c-.726-.353-.952-1.416-1-2-.134-1.627 0-5 0-5l2-1v-60s-4.397-68.843-6-118c-.043-30.042-1.263-51.21 0-63 .417-9.595 0-15 0-15s-3.33 1.213-16 1c-7.213-.24-12.346-1.696-14-3s-3.068-1.68-4-4-3.116-14.299-3-19c.038-1.528.718-8.27 4-16 7.757-13.335 16.278-32.609 20-38 11.083-19.598 39-45 39-45s7.833-8.279 16-19c5.513-7.351 6.986-10.484 9-14 1.715-5.633 14-19 14-19s7.302-31.997 11-38c.57-1.804 1.601-7.916 5-10 .938-.676-1.092-5.57 4-8 2.479-1.779-5.976-2.167-7-7 1.903-5.64 9-5 9-5s8.167-5.782 17-13c11.826-7.725 19-14 19-14-.06.033-.735-2.976.998-7.999 1.075-1.333 1.495-3.18 3.002-5.001-.023-2.399 0-5 0-5v-7s5.99-25.661 14-41c1.888-3.586 15.056-22.691 23-27 6.67-1.746 17.6-.887 19-1 2.667.43 11 3 11 3s18.942-.42 21 2c1.805 1.251 6.801 2.812 8 4 3.216.188 17.191 24.731 20 31 3.775 5.362 8 23 8 23s30.397-1.335 46 16c13.707 15.719 5.823 30.348 1 37-8.63 10.067-29 20-29 20s-5.095 1.072-6 2c-.905.928-1 5-1 5l-1 5v4h-1l-1 3s-.129.795-2 9c-.852 3.586-5 12-5 12l-4 7s-.752 1.643-1 4c-.06.571-.925 1.363-1 2-.658 5.589-1 12-1 12s21.319 15.89 25 19c8.027 6.363 17.386 21.952 23 39 .865 2.153 11.769 37.156 18 66 .571 1.251 3.378 20.524 5 32-.041 1.255-.086 29.868 0 36-1.427 29.192-1 61-1 61s1.671 7.909 3 12c1.607 4.989 12.611 33.96 14 42 4.728 19.436-1.31 66.376-2 69-.268.582-3 4-3 4s1.325 5.55 1 11c.348 17.557-5.059 37.049-8 45-.958 2.589-2 4-2 4l2.112.398L922 722s-5.374 158.935-3 159c2.642.072 521 0 521 0V1H0zm697.292 489.035c-.081-.796-.556-.095-.833-.143 0-4.5-2.096-12.504-8.581-10.437l-5.197 1.588c-3.325-3.325-5.523.12-7.648 3.314C683.946 505.731 701.474 550.079 702 549c1.538-3.159 4.955-14.821 3-25-2.51-13.07-4.83-30.887-7.708-33.965zm-42.437-63.47c-2.381-13.007-5.226-30.641-7.144-39.026-1.918-8.385-12.5-5.807-11.58 1.224 1.8 7.496 11.38 24.075 17.869 40.238 0 0 1.291-.242 1.61-.334l-.227-1.907a56.288 56.288 0 0 0-.528-.195zm-41.896 176.937C608.917 622.18 607.931 632.971 605 660c0 0 20.166-9.716 27-11-3.264-5.355-16.356-45.166-16.418-46.634-.061-1.468-1.905-1.694-2.623 1.136z" fill-rule="evenodd" clip-rule="evenodd"/></svg>