<svg xmlns="http://www.w3.org/2000/svg" viewBox="0 0 768 1024"><path d="M767.5-.5H-.5v557l2 466h160s1.594-9.626 2.128-27.237c.628-20.712 2.339-45.588 2.339-45.588l-4.678-12.858-1.169-19.872s-3.455-14.185-3.508-18.703c-.037-.662-.399-10.501 0-12.858.399-2.358 11.695-16.365 11.695-16.365v-18.703s1.769-2.638 3.508-3.507c1.769-.884 5.847-1.169 5.847-1.169v-3.507l3.508-2.338s.035-2.414 2.339-3.507c3.215-1.524 9.355-1.169 9.355-1.169s5.645-.882 5.847-2.338c.139-1.005 0-10.52 0-10.52s-.349-3.265 0-4.676c-.849-.413-1.113-1.655-1.169-2.338-.157-1.902 0-5.845 0-5.845l2.339-1.169v-70.136s-5.142-80.473-7.017-137.934c-.05-35.117-1.477-59.862 0-73.643.488-11.216 0-17.534 0-17.534s-3.894 1.417-18.711 1.169c-8.435-.281-14.438-1.983-16.372-3.507-1.934-1.524-3.588-1.964-4.678-4.676-1.09-2.712-3.644-16.715-3.508-22.21.044-1.786.84-9.667 4.678-18.703 9.072-15.588 19.036-38.118 23.389-44.419 12.961-22.908 45.608-52.602 45.608-52.602s9.16-9.677 18.711-22.21c6.447-8.593 8.17-12.255 10.525-16.365 2.006-6.584 16.372-22.21 16.372-22.21s8.539-37.403 12.864-44.419c.666-2.109 1.872-9.253 5.847-11.689 1.098-.79-1.277-6.511 4.678-9.351 2.899-2.08-6.989-2.533-8.186-8.183 2.225-6.592 10.525-5.845 10.525-5.845s9.551-6.759 19.88-15.196c13.83-9.03 22.219-16.365 22.219-16.365-.07.038-.859-3.479 1.168-9.35 1.257-1.559 1.748-3.717 3.51-5.846-.027-2.804 0-5.845 0-5.845v-8.182s7.004-29.996 16.372-47.926c2.208-4.192 17.607-26.525 26.897-31.561 7.8-2.041 20.583-1.036 22.219-1.169 3.119.503 12.864 3.507 12.864 3.507s22.152-.49 24.558 2.338c2.111 1.462 7.953 3.288 9.355 4.676 3.761.219 20.104 28.909 23.389 36.237 4.415 6.267 9.356 26.885 9.356 26.885s35.547-1.56 53.794 18.703c16.029 18.374 6.809 35.475 1.169 43.251-10.092 11.767-33.914 23.379-33.914 23.379s-5.958 1.253-7.017 2.338c-1.059 1.085-1.169 5.845-1.169 5.845l-1.169 5.845v4.676h-1.169l-1.169 3.507s-.151.929-2.339 10.52c-.997 4.192-5.847 14.027-5.847 14.027l-4.678 8.183s-.879 1.92-1.169 4.676c-.07.667-1.082 1.593-1.169 2.338-.769 6.533-1.169 14.027-1.169 14.027s24.932 18.574 29.236 22.21c9.388 7.438 20.331 25.661 26.897 45.589 1.012 2.517 13.763 43.432 21.05 77.15.667 1.462 3.95 23.991 5.847 37.406-.047 1.467-.1 34.913 0 42.082-1.668 34.123-1.169 71.305-1.169 71.305s1.954 9.245 3.508 14.027c1.879 5.832 14.747 39.697 16.372 49.095 5.529 22.72-1.532 77.589-2.339 80.656-.314.68-3.508 4.676-3.508 4.676s1.55 6.488 1.169 12.858c.407 20.523-5.916 43.307-9.356 52.602-1.12 3.027-2.339 4.676-2.339 4.676l2.47.466 59.51 11.224s-6.005 180.123-3.228 180.198c3.089.084 145-1 145-1V727.577L767.5-.5zM363.945 572.15c-.094-.93-.65-.111-.975-.167 0-5.26-2.452-14.616-10.034-12.2l-6.078 1.857c-3.889-3.887-6.458.14-8.944 3.874 10.423 24.983 30.922 76.823 31.536 75.562 1.799-3.692 5.794-17.325 3.508-29.223-2.935-15.279-5.648-36.106-9.013-39.703zm-49.629-74.193c-2.785-15.205-6.111-35.818-8.354-45.619-2.244-9.801-14.618-6.788-13.542 1.43 2.105 8.763 13.308 28.142 20.896 47.035 0 0 1.51-.282 1.883-.391l-.265-2.229-.618-.226zm-48.994 206.828c-4.728 21.833-5.88 34.448-9.308 66.042 0 0 23.583-11.358 31.575-12.858-3.817-6.26-19.127-52.796-19.199-54.512-.072-1.716-2.229-1.98-3.068 1.328z" fill-rule="evenodd" clip-rule="evenodd"/></svg>