<svg id="Layer_1" data-name="Layer 1" xmlns="http://www.w3.org/2000/svg" viewBox="0 0 1010.36 617.68"><title>main-banner-smartphone</title><path d="M157,137.31a30.13,30.13,0,0,1,1.4-6.31c.75-.93,1-2.23,2.1-3.51a8.93,8.93,0,0,0,0-3.51v-4.91s4.5-20.31,9.82-28.75c1.32-2.51,8.58-13.19,16.13-18.93,4.41-1.7,12.73-.76,13.32-.7.74.47,7.71,2.1,7.71,2.1s13.28.88,14.72,1.4,4.77,2,5.61,2.8c2.26.13,12.05,17.34,14,21.73,2.65,3.76,5.61,16.13,5.61,16.13s21.31-.94,32.25,11.22c10.45,11.44,4.62,21.46.7,25.94-5.09,6.84-20.33,14-20.33,14s-3.57.75-4.21,1.4-.7,3.51-.7,3.51l-1.4,3.51v2.8h-.7v2.1s-.79.56-2.1,6.31c-.6,2.51-3.51,8.41-3.51,8.41l-2.8,4.91a12.18,12.18,0,0,1,0,2.8c0,.4-.65.25-.7.7-.46,3.92-.7,9.11-.7,9.11s14.25,11.14,16.83,13.32c6.19,5,12.42,14.1,16.13,27.34.61,1.51,9.47,27.51,12.62,46.27.4.88,3.07,14.39,4.21,22.44,0,.88-.05,12.19,0,25.24-.9,21-.7,42.77-.7,42.77a50.56,50.56,0,0,0,1.4,8.41c1.81,3.1,10.27,26.3,10.52,29.45,2.92,12.79-2.1,48.38-2.1,48.38l-1.4,3.51a23,23,0,0,1,.7,7c.44,17.22-7,34.35-7,34.35l37.16,7s-3.07,111.43-1.4,111.48c1.85.05,364.6,0,364.6,0v-617H-314.83l-.7,320.41.7,296.57H54s-.32-9.77,0-20.33c.38-12.42,1.4-27.34,1.4-27.34s-2.72-6.79-2.8-7.71c-.71-2.65-.7-11.92-.7-11.92,0,.15-2.09-10-2.12-12.67a49.72,49.72,0,0,1,0-6.26c.24-1.41,7-9.82,7-9.82V531.33a7.46,7.46,0,0,1,2.1-2.1,12.94,12.94,0,0,1,3.51-.7v-2.1l2.1-1.4a2.5,2.5,0,0,1,1.4-2.1c1.93-.91,5.61-.7,5.61-.7a6.26,6.26,0,0,0,2.8-.7c1-.63.7-7,.7-7a11.35,11.35,0,0,0-.7-3.51,6.74,6.74,0,0,1-.7-4.21,6.3,6.3,0,0,1,2.1-.7V463.32s-4.62-57.47-3.51-65.9c-.1-2.35-2-41.35-1.21-60.13.29-6.73.51-10.68.51-10.68s-2.33.85-11.22.7c-5.06-.17-8.66-1.19-9.82-2.1s-2.15-1.18-2.8-2.8a61.22,61.22,0,0,1-2.1-13.32,35.24,35.24,0,0,1,2.8-11.22c5.44-9.35,11.41-22.86,14-26.64,7.85-12.49,28-32.25,28-32.25s6-6.62,10.52-12.62a70.6,70.6,0,0,0,6.31-9.82c1.41-2.46,9.82-13.32,9.82-13.32s5.12-22.43,7.71-26.64c.4-1.26,1.12-5.55,3.51-7,.66-.47-.77-3.91,2.8-5.61.3-1.25-5.42-1.45-5.61-4.91,0-3.89,7-3.51,7-3.51s5-4.05,11.22-9.11A144.24,144.24,0,0,0,157,137.31Z" transform="translate(315.53 -21.62)" fill-rule="evenodd"/><path d="M157.75,360.26s4.95,13.5,7,16.83S176,404.43,176,404.43l1.4,1.4,1.4-3.51,1.4-2.8s.83-10.62-2.2-20.16c-1.08-2.49-.82-6-2-9.29-.75-2.27-3.51-12.62-3.51-12.62s-1.27-2.33-.7-2.8c1.4-2.51-4.21-4.91-4.21-4.91l-.7,7.71s-1.64-.15-1.4,0,0-1.92-.7-3.51c-.89-1.69-2.4.23-3.51.7S157.75,360.26,157.75,360.26Z" transform="translate(315.53 -21.62)" fill-rule="evenodd"/><path d="M108.67,485.06c15.76-9.54,21-7,22.44-8.41-8.56-13.57-7.33-18.18-9.82-24.54-.63-1.32-2.1-7.7-2.8-9.11-.59-1.17-2.21-7.81-2.8-7-1.22,2.83-2.1,10.52-2.1,10.52-.43.12-4.29,33.68-4.21,33.65S108.67,485,108.67,485.06Z" transform="translate(315.53 -21.62)" fill-rule="evenodd"/><path d="M130.4,294.35c-.23-2-3.73-5.48-2.8-5.61s6.61-3.64,10.52-6.31c.36,2.52,1.4,7.71,1.4,7.71s.57,5.24.7,7,2.8,13.32,2.8,13.32,2.09,12.78,2.1,13.32-2.1-2.1-2.1-2.1S134.94,303.39,130.4,294.35Z" transform="translate(315.53 -21.62)" fill-rule="evenodd"/><path d="M105.86,258.6l35.06-33.65V212.32s-.29,2.22-9.11,9.11S105.86,258.6,105.86,258.6Z" transform="translate(315.53 -21.62)" fill-rule="evenodd"/><path d="M-314.83,639.3v-617" transform="translate(315.53 -21.62)" fill="none" fill-rule="evenodd"/></svg>