<svg id="Layer_1" data-name="Layer 1" xmlns="http://www.w3.org/2000/svg" viewBox="0 0 1827.87 1117.23"><title>main-banner-tablet</title><path d="M340.88,196.74a54.48,54.48,0,0,1,2.54-11.41c1.36-1.69,1.89-4,3.81-6.34a16.15,16.15,0,0,0,0-6.34v-8.88s8.14-36.73,17.76-52c2.4-4.55,15.52-23.86,29.17-34.24,8-3.08,23-1.37,24.1-1.27,1.33.85,14,3.8,14,3.8s24,1.59,26.64,2.54,8.63,3.57,10.15,5.07c4.08.24,21.81,31.36,25.37,39.31,4.79,6.8,10.15,29.17,10.15,29.17s38.56-1.69,58.35,20.29c18.91,20.7,8.36,38.81,1.27,46.92-9.21,12.38-36.79,25.36-36.79,25.36s-6.46,1.36-7.61,2.54-1.27,6.34-1.27,6.34L515.93,264V269h-1.27v3.8s-1.43,1-3.81,11.41c-1.08,4.55-6.34,15.22-6.34,15.22l-5.07,8.88a16.47,16.47,0,0,1,.13,1.78c0,.89.31,3.07-.38,3.7-.31.29-.76.24-1,.66a5.5,5.5,0,0,0-.22,1.72c-.15,1.42-.28,2.85-.4,4.28q-.44,5.33-.7,10.68s25.77,20.15,30.44,24.09c11.19,9.06,22.47,25.5,29.17,49.46,1.1,2.73,17.13,49.77,22.83,83.7.72,1.59,5.55,26,7.61,40.58-.05,1.59-.09,22,0,45.65-1.64,38-1.27,77.36-1.27,77.36s.85,10,2.54,15.22c3.28,5.61,18.58,47.57,19,53.26,5.29,23.14-3.81,87.5-3.81,87.5l-2.54,6.34A41.6,41.6,0,0,1,602.19,827c.79,31.14-12.68,62.14-12.68,62.14l67.23,12.68s-5.55,201.55-2.54,201.63c3.35.09,659.61,0,659.61,0V-12.5H-512.8L-514.07,567l1.27,536.42H154.42c-.36-11.13-.36-22.28-.09-33.41.34-14.39,1.13-28.77,2-43.13q.3-4.85.62-9.69s-4.92-12.27-5.07-13.95c-1.29-4.8-1.27-21.56-1.27-21.56,0,.27-3.77-18-3.83-22.92,0-.72-.41-8.76,0-11.32s12.68-17.75,12.68-17.75V909.44s1.92-2.86,3.81-3.8,6.34-1.27,6.34-1.27v-3.8l3.81-2.54a4.52,4.52,0,0,1,2.54-3.8c3.49-1.65,10.15-1.27,10.15-1.27a11.34,11.34,0,0,0,5.07-1.27c1.73-1.14,1.27-12.68,1.27-12.68a20.54,20.54,0,0,0-1.27-6.34c-1.49-2.18-1.66-6.77-1.27-7.61,1-.8,3.81-1.27,3.81-1.27V786.43s-8.35-103.94-6.34-119.21c-.18-4-.37-8.09-.55-12.14q-.55-12.8-1-25.6-.53-15.75-.84-31.5c-.18-10.08-.27-20.17-.09-30.25.17-9.35.67-18.69,1.17-28l0-.56s-4.22,1.54-20.3,1.27c-5.31-.18-11.18-.64-16.09-2.85a9.87,9.87,0,0,1-1.89-1.12c-1-.72-2-1.31-2.93-2.11a8.83,8.83,0,0,1-2.49-4.65,115.88,115.88,0,0,1-2.45-13,45.5,45.5,0,0,1-.66-11,65.05,65.05,0,0,1,4.94-18.54c9.84-16.91,20.65-41.35,25.37-48.19,14.2-22.59,50.74-58.33,50.74-58.33,9-9.87,17.79-20.16,25-31.37,2.41-3.73,4.33-7.76,6.83-11.42,2.94-4.31,6.12-8.48,9.27-12.64q3.51-4.64,7.07-9.24s9.26-40.58,14-48.19c.72-2.29,2-10,6.34-12.68,1.19-.86-1.39-7.06,5.07-10.15.54-2.27-9.81-2.62-10.15-8.88,0-7,12.68-6.34,12.68-6.34s9.09-7.33,20.3-16.49A260.93,260.93,0,0,0,340.88,196.74Z" transform="translate(514.07 12.5)" fill-rule="evenodd"/><path d="M342.15,600s9,24.42,12.68,30.44,20.3,49.46,20.3,49.46l2.54,2.54,2.54-6.34,2.54-5.07s1.49-19.21-4-36.46c-2-4.49-1.48-10.9-3.63-16.8-1.36-4.11-6.34-22.83-6.34-22.83s-2.29-4.21-1.27-5.07c2.54-4.54-7.61-8.88-7.61-8.88l-1.27,13.95s-3-.28-2.54,0,0-3.48-1.27-6.34c-1.62-3.06-4.34.42-6.34,1.27S342.15,600,342.15,600Z" transform="translate(514.07 12.5)" fill="none" fill-rule="evenodd"/><path d="M253.36,825.74c28.51-17.25,38.06-12.73,40.59-15.22-15.49-24.54-13.26-32.88-17.76-44.38-1.13-2.39-3.8-13.92-5.07-16.49-1.06-2.13-4-14.12-5.07-12.68-2.21,5.12-3.81,19-3.81,19-.78.22-7.76,60.91-7.61,60.87S253.37,825.57,253.36,825.74Z" transform="translate(514.07 12.5)" fill="none" fill-rule="evenodd"/><path d="M292.68,480.81c-.42-3.59-6.74-9.9-5.07-10.15s12-6.59,19-11.41c.65,4.55,2.54,13.95,2.54,13.95s1,9.48,1.27,12.68S315.51,510,315.51,510s3.79,23.11,3.81,24.09-3.81-3.8-3.81-3.8S300.89,497.16,292.68,480.81Z" transform="translate(514.07 12.5)" fill-rule="evenodd"/><path d="M248.28,416.13l63.42-60.87V332.43a6.65,6.65,0,0,1-1.22,2.23,49.36,49.36,0,0,1-7.51,7.83c-3.62,3.22-7.65,6-11.09,9.41a94.66,94.66,0,0,0-7.31,8.33c-5.74,7.22-10.94,14.86-16,22.58q-7,10.78-13.61,21.86c-2.24,3.75-4.45,7.51-6.61,11.3Z" transform="translate(514.07 12.5)" fill-rule="evenodd"/><path d="M-512.8,1104.73v-1116" transform="translate(514.07 12.5)" fill="none" fill-rule="evenodd"/></svg>