<svg xmlns="http://www.w3.org/2000/svg" viewBox="0 0 1440 810"><path d="M-2.5 811.5h520l7-58c-6.593-47.229-12.693-93.475 27-111 8.837-48.722 4.195-123.673-3-172l-2-81c-3.743-5.295-22.023-5.547-28-8-27.29-77.301 62.246-140.063 93-189 5.156-8.204 16.203-44.323 18-53l-2-14c2.869-6.685 35.758-19.855 42-29 7.561-11.078 6.422-32.692 11-46 7.098-20.63 18.646-32.567 30-48h2l-715-1v810zm739-810l32 6c14.652 7.351 26.988 36.029 31 54 28.498 13.492 59.304 6.922 51 50l-2 20c-7.318 11.395-28.463 15.774-40 23-3.103 12.815-15.453 37.655-11 49l20 17c10.874 8.718 18.561 25.09 24 39 11.197 28.633 17.539 62.475 23 95l-1 97 19 67c7.285 43.338-8.594 80.593-9 122 11.473 6.312 31.38 8.797 45 12 11.788 48.8-7.176 109.053-1 159h520V1.5h-701zm-52 417l-4 5c-4.944 12.215 10.311 40.368 18 45l3-3c4.812-12.091-5.641-39.435-11-47h-6zm-74 125c-6.03 11.99-4.694 30.378-7 44v1l24-9c-4.565-10.649-5.979-28.494-14-36h-3z" fill-rule="evenodd" clip-rule="evenodd"/></svg>