<svg xmlns="http://www.w3.org/2000/svg" viewBox="0 0 380 568"><path d="M160.451 154.929c-.039.021-.472-1.913.641-5.142.69-.857.96-2.044 1.928-3.215-.015-1.542 0-3.214 0-3.214v-4.5s3.847-16.496 8.993-26.357c1.213-2.305 9.671-14.587 14.774-17.357 4.285-1.123 11.306-.57 12.205-.643 1.713.277 7.066 1.929 7.066 1.929s12.168-.27 13.49 1.286c1.16.804 4.369 1.808 5.139 2.571 2.066.121 11.043 15.899 12.847 19.929 2.425 3.447 5.139 14.786 5.139 14.786s19.526-.858 29.549 10.286c8.805 10.105 3.74 19.51.642 23.786-5.543 6.471-18.628 12.857-18.628 12.857s-3.273.689-3.854 1.286c-.581.597-.642 3.214-.642 3.214l-.642 3.214v2.572h-.642l-.642 1.929s-.083.511-1.285 5.786c-.547 2.305-3.212 7.714-3.212 7.714l-2.57 4.5s-.483 1.056-.642 2.571c-.039.367-.594.876-.642 1.286-.423 3.593-.642 7.714-.642 7.714s13.695 10.215 16.059 12.214c5.157 4.09 11.168 14.112 14.774 25.071.556 1.384 7.56 23.886 11.562 42.429.366.804 2.17 13.194 3.212 20.571-.026.807-.055 19.201 0 23.143-.917 18.766-.642 39.214-.642 39.214s1.073 5.085 1.927 7.714c1.032 3.207 8.101 21.831 8.993 27 3.037 12.495-.841 42.67-1.285 44.357-.172.374-1.927 2.571-1.927 2.571s.851 3.568.642 7.071c.223 11.287-3.25 23.817-5.139 28.929-.615 1.664-1.285 2.571-1.285 2.571l1.357.256L319.757 513s-2.782 55.458-1.257 55.5c1.697.046 62 0 62 0V.5H.5v568h66l-2.403-4.071-.642-10.929s-1.898-7.801-1.927-10.286c-.02-.364-.219-5.775 0-7.071.219-1.297 6.424-9 6.424-9v-10.286s.972-1.451 1.927-1.929c.972-.486 3.212-.643 3.212-.643v-1.929l1.927-1.286s.019-1.328 1.285-1.929c1.766-.838 5.139-.643 5.139-.643s3.1-.485 3.212-1.286c.076-.553 0-5.786 0-5.786s-.191-1.796 0-2.572c-.466-.227-.611-.91-.642-1.286-.086-1.046 0-3.214 0-3.214l1.285-.643V455.14s-2.825-44.257-3.854-75.857c-.028-19.312-.811-32.921 0-40.5.268-6.168 0-9.643 0-9.643s-2.139.779-10.278.643c-4.633-.155-7.931-1.09-8.993-1.928-1.062-.838-1.971-1.08-2.569-2.572s-2.001-9.192-1.927-12.214c.024-.982.461-5.316 2.569-10.286 4.983-8.573 10.456-20.963 12.847-24.429 7.119-12.599 25.052-28.929 25.052-28.929s5.032-5.322 10.278-12.214c3.541-4.725 4.488-6.74 5.781-9 1.102-3.621 8.993-12.214 8.993-12.214s4.69-20.57 7.066-24.429c.366-1.16 1.028-5.089 3.212-6.428.603-.435-.702-3.581 2.57-5.143 1.592-1.144-3.839-1.393-4.497-4.5 1.222-3.626 5.781-3.214 5.781-3.214s5.246-3.717 10.92-8.357c7.595-4.963 12.203-8.997 12.203-8.997z" fill-rule="evenodd" clip-rule="evenodd"/></svg>