<svg data-name="Layer 1" xmlns="http://www.w3.org/2000/svg" viewBox="0 0 1441 880.03"><title>WDLK_Main-Banner_Desktop_alpha</title><path d="M674 165a43 43 0 0 1 2-9c1.07-1.33 1.49-3.18 3-5a12.74 12.74 0 0 0 0-5v-7s6.42-29 14-41c1.89-3.59 12.24-18.81 23-27 6.29-2.43 18.16-1.08 19-1 1.05.67 11 3 11 3q4.81.32 9.62.71c2.37.19 4.73.39 7.1.65A22.74 22.74 0 0 1 767 75a32.67 32.67 0 0 1 4.25 1.79A13.61 13.61 0 0 1 775 79c3.22.19 17.19 24.73 20 31 3.78 5.36 8 23 8 23s30.4-1.33 46 16c14.91 16.32 6.59 30.61 1 37-7.26 9.76-29 20-29 20a18.31 18.31 0 0 0-5.61 1.72c-1.46.9-1.34 3.77-1.39 5.28l-2 5v4h-1v3s-1.13.79-3 9c-.85 3.59-5 12-5 12l-4 7a17.37 17.37 0 0 1 0 4c-.06.57-.92.36-1 1-.66 5.59-1 13-1 13s20.32 15.89 24 19c8.83 7.14 17.71 20.11 23 39 .87 2.15 13.5 39.24 18 66 .57 1.25 4.38 20.52 6 32 0 1.25-.07 17.38 0 36-1.29 29.95-1 61-1 61s.67 7.91 2 12c2.59 4.43 14.65 37.51 15 42 4.17 18.24-3 69-3 69l-2 5a32.81 32.81 0 0 1 1 10c.62 24.56-10 49-10 49l53 10s-4.37 158.94-2 159c2.64.07 520 0 520 0V0H1L0 457l1 423h526c-.28-8.74-.28-17.5-.07-26.24.27-11.33.89-22.66 1.58-34q.24-3.89.5-7.79s-3.88-9.68-4-11c-1-3.79-1-17-1-17 0 .21-3-14.21-3-18.07-.11-1.94-.15-3.9-.14-5.84a8.26 8.26 0 0 1 .79-4.43 90.18 90.18 0 0 1 7.15-9.85q1.1-1.41 2.22-2.81V727a10.64 10.64 0 0 1 3-3 18.45 18.45 0 0 1 5-1v-3l3-2c.21-4.36 6.91-4.16 10-4a8.94 8.94 0 0 0 4-1c1.36-.9 1-10 1-10a16.2 16.2 0 0 0-1-5 9.62 9.62 0 0 1-1-6 9 9 0 0 1 3-1v-61s-6.58-82-5-94c-.44-9.95-.88-19.9-1.22-29.85-.55-16.2-1-32.42-.73-48.63.13-7.51.53-15 .94-22.52 0 0-3.33 1.21-16 1-4.2-.14-8.91-.49-12.79-2.29a16.39 16.39 0 0 1-3.66-2.48 7 7 0 0 1-2-3.74 91.77 91.77 0 0 1-1.91-10.15 36.11 36.11 0 0 1-.53-8.75A51.34 51.34 0 0 1 519 394c7.76-13.34 16.28-32.61 20-38 11.19-17.81 40-46 40-46 7.07-7.79 14-15.91 19.76-24.76 1.89-2.92 3.39-6.09 5.35-9 2.32-3.4 4.82-6.69 7.31-10q2.77-3.67 5.59-7.31s7.3-32 11-38c.57-1.8 1.6-7.92 5-10 .94-.68-1.09-5.57 4-8 .43-1.79-7.74-2.06-8-7 0-5.55 10-5 10-5s7.17-5.78 16-13A205.69 205.69 0 0 0 674 165z" fill-rule="evenodd"/><path d="M675 483q2.16 5.88 4.49 11.71c1.14 2.84 2.29 5.68 3.57 8.47.75 1.64 1.65 3.17 2.47 4.77 2 4 3.67 8.17 5.35 12.29 2.21 5.41 4.35 10.85 6.48 16.3q1.84 4.73 3.65 9.46l2 2 2-5 2-4s1.18-15.14-3.14-28.75c-1.54-3.54-1.17-8.59-2.86-13.25-1.07-3.24-5-18-5-18s-1.81-3.32-1-4c2-3.58-6-7-6-7l-1 11a18.55 18.55 0 0 0-2 0 .09.09 0 0 0 .07 0c.64-.08-.89-4.68-1-5-1-1.95-2.85-.35-4.07.46a10.76 10.76 0 0 0-1.44.92 7.84 7.84 0 0 0-1.12 1.43A47.13 47.13 0 0 0 675 483zM605 661c22.48-13.6 30-10 32-12-12.21-19.35-10.45-25.92-14-35a29.94 29.94 0 0 1-1.5-4.81c-.58-2.08-1.13-4.18-1.78-6.24-.39-1.23-.93-2.39-1.33-3.61-.58-1.78-1.09-3.58-1.7-5.35-.08-.24-1.25-3.57-1.69-3-1.74 4-3 15-3 15-.62.17-6.12 48-6 48s-1 6.88-1 7.01zM636 389c-.25-2.12-2-4.08-3.17-5.78-.24-.36-1.22-1.48-1.05-2 .11-.33.76-.41 1.08-.55a56.11 56.11 0 0 0 6.16-3.51q4.05-2.5 8-5.18c.51 3.59 2 11 2 11 .41 3.79.55 7.67 1.21 11.43.79 4.54 1.86 9 2.87 13.53l.92 4q.75 4.55 1.48 9.11.51 3.2 1 6.4c.12.76.24 1.53.35 2.29 0 .22.27 1 .15 1.16-.22.4-1.09-.72-1.31-1-.59-.64-1.14-1.32-1.69-2 0 .1-11.53-26.01-18-38.9zM601 338l50-48v-18a5.36 5.36 0 0 1-1 1.74 38.49 38.49 0 0 1-5.86 6.13c-2.85 2.55-6 4.74-8.76 7.43a74.09 74.09 0 0 0-5.8 6.6c-8.73 11-16.16 23-23.34 35.06C604.5 332 602.72 335 601 338z" fill-rule="evenodd"/></svg>